<?xml version="1.0" encoding="UTF-8"?>
<svg xmlns="http://www.w3.org/2000/svg" width="1200" height="990" viewBox="0 0 1200 990" role="img" aria-labelledby="title desc">
  <title id="title">Where are we now?</title>
  <desc id="desc">Project tree: Stage 0 and Stages 1A to 1G complete, Stage 1H complete as design and awaiting review (highlighted, you are here), Stage 1I paused and not defined. KubeVirt target designed, but not deployed.</desc>
  <style>
    text { font-family: 'Segoe UI', Arial, sans-serif; }
    .h { font-size: 24px; font-weight: 700; fill: #0f172a; }
    .h2 { font-size: 17px; font-weight: 700; fill: #0f172a; }
    .sub { font-size: 14px; fill: #334155; }
    .t { font-weight: 600; fill: #0f172a; }
    .s { fill: #1f2937; }
    .xs { font-size: 12px; fill: #334155; }
    .lab { font-size: 13px; font-weight: 700; fill: #334155; letter-spacing: 1px; }
    .pill { font-size: 11px; font-weight: 700; fill: #ffffff; letter-spacing: 0.5px; }
    .halo { paint-order: stroke; stroke: #ffffff; stroke-width: 5px; stroke-linejoin: round; }
  </style>
  <defs><marker id="m1d4ed8" markerWidth="10" markerHeight="10" refX="8.5" refY="5" orient="auto" markerUnits="userSpaceOnUse"><path d="M0,0 L10,5 L0,10 z" fill="#1d4ed8"/></marker></defs>
  <rect width="1200" height="990" fill="#ffffff"/>
  <text x="600.0" y="44" class="h" text-anchor="middle">Where are we now?</text>
  <text x="600.0" y="70" class="sub" text-anchor="middle">Official status from the Stage 1 README</text>
  <rect x="80" y="100" width="220" height="56" rx="10" fill="#ffffff" stroke="#334155" stroke-width="1.8"/>
  <text x="190.0" y="133.76" class="t" text-anchor="middle" style="font-size:18px">PROJECT 1.5</text>
  <path d="M190,156 L190,814" stroke="#475569" stroke-width="2.4" fill="none"/>
  <path d="M190,210 L240,210" stroke="#475569" stroke-width="2.4" fill="none"/>
  <rect x="242" y="186" width="470" height="48" rx="10" fill="#dcfce7" stroke="#15803d" stroke-width="1.8"/>
  <text x="300" y="217" class="t" text-anchor="start" style="font-size:17px">Stage 0</text>
  <text x="400" y="216" class="s" text-anchor="start" style="font-size:14px">theory, architecture, ADRs 001-005</text>
  <path d="M260,211 L266.6666666666667,218.0 L280,203.0" fill="none" stroke="#15803d" stroke-width="4" stroke-linecap="round" stroke-linejoin="round"/>
  <path d="M190,274 L240,274" stroke="#475569" stroke-width="2.4" fill="none"/>
  <rect x="242" y="250" width="470" height="48" rx="10" fill="#dcfce7" stroke="#15803d" stroke-width="1.8"/>
  <text x="300" y="281" class="t" text-anchor="start" style="font-size:17px">Stage 1A</text>
  <text x="400" y="280" class="s" text-anchor="start" style="font-size:14px">ESXi reboot persistence</text>
  <path d="M260,275 L266.6666666666667,282.0 L280,267.0" fill="none" stroke="#15803d" stroke-width="4" stroke-linecap="round" stroke-linejoin="round"/>
  <path d="M190,338 L240,338" stroke="#475569" stroke-width="2.4" fill="none"/>
  <rect x="242" y="314" width="470" height="48" rx="10" fill="#dcfce7" stroke="#15803d" stroke-width="1.8"/>
  <text x="300" y="345" class="t" text-anchor="start" style="font-size:17px">Stage 1B</text>
  <text x="400" y="344" class="s" text-anchor="start" style="font-size:14px">nested KVM / QEMU / libvirt / VirtIO</text>
  <path d="M260,339 L266.6666666666667,346.0 L280,331.0" fill="none" stroke="#15803d" stroke-width="4" stroke-linecap="round" stroke-linejoin="round"/>
  <path d="M190,402 L240,402" stroke="#475569" stroke-width="2.4" fill="none"/>
  <rect x="242" y="378" width="470" height="48" rx="10" fill="#dcfce7" stroke="#15803d" stroke-width="1.8"/>
  <text x="300" y="409" class="t" text-anchor="start" style="font-size:17px">Stage 1C</text>
  <text x="400" y="408" class="s" text-anchor="start" style="font-size:14px">real VMware source VM + nginx</text>
  <path d="M260,403 L266.6666666666667,410.0 L280,395.0" fill="none" stroke="#15803d" stroke-width="4" stroke-linecap="round" stroke-linejoin="round"/>
  <path d="M190,466 L240,466" stroke="#475569" stroke-width="2.4" fill="none"/>
  <rect x="242" y="442" width="470" height="48" rx="10" fill="#dcfce7" stroke="#15803d" stroke-width="1.8"/>
  <text x="300" y="473" class="t" text-anchor="start" style="font-size:17px">Stage 1D</text>
  <text x="400" y="472" class="s" text-anchor="start" style="font-size:14px">VMDK characterized, copy designed</text>
  <path d="M260,467 L266.6666666666667,474.0 L280,459.0" fill="none" stroke="#15803d" stroke-width="4" stroke-linecap="round" stroke-linejoin="round"/>
  <path d="M190,530 L240,530" stroke="#475569" stroke-width="2.4" fill="none"/>
  <rect x="242" y="506" width="470" height="48" rx="10" fill="#dcfce7" stroke="#15803d" stroke-width="1.8"/>
  <text x="300" y="537" class="t" text-anchor="start" style="font-size:17px">Stage 1E</text>
  <text x="400" y="536" class="s" text-anchor="start" style="font-size:14px">cold, byte-identical disk copy</text>
  <path d="M260,531 L266.6666666666667,538.0 L280,523.0" fill="none" stroke="#15803d" stroke-width="4" stroke-linecap="round" stroke-linejoin="round"/>
  <path d="M190,594 L240,594" stroke="#475569" stroke-width="2.4" fill="none"/>
  <rect x="242" y="570" width="470" height="48" rx="10" fill="#dcfce7" stroke="#15803d" stroke-width="1.8"/>
  <text x="300" y="601" class="t" text-anchor="start" style="font-size:17px">Stage 1F</text>
  <text x="400" y="600" class="s" text-anchor="start" style="font-size:14px">conversion host + working copy</text>
  <path d="M260,595 L266.6666666666667,602.0 L280,587.0" fill="none" stroke="#15803d" stroke-width="4" stroke-linecap="round" stroke-linejoin="round"/>
  <path d="M190,658 L240,658" stroke="#475569" stroke-width="2.4" fill="none"/>
  <rect x="242" y="634" width="470" height="48" rx="10" fill="#dcfce7" stroke="#15803d" stroke-width="1.8"/>
  <text x="300" y="665" class="t" text-anchor="start" style="font-size:17px">Stage 1G</text>
  <text x="400" y="664" class="s" text-anchor="start" style="font-size:14px">qemu-img + virt-v2v + KVM boot</text>
  <path d="M260,659 L266.6666666666667,666.0 L280,651.0" fill="none" stroke="#15803d" stroke-width="4" stroke-linecap="round" stroke-linejoin="round"/>
  <path d="M190,736 L240,736" stroke="#475569" stroke-width="2.4" fill="none"/>
  <rect x="242" y="712" width="470" height="48" rx="10" fill="#dbeafe" stroke="#1d4ed8" stroke-width="3.5"/>
  <text x="300" y="743" class="t" text-anchor="start" style="font-size:17px">Stage 1H</text>
  <text x="400" y="742" class="s" text-anchor="start" style="font-size:14px">KubeVirt target DESIGN / REVIEW</text>
  <path d="M260,737 L266.6666666666667,744.0 L280,729.0" fill="none" stroke="#1d4ed8" stroke-width="4" stroke-linecap="round" stroke-linejoin="round"/>
  <rect x="580" y="701" width="122" height="20" rx="10.0" fill="#1d4ed8"/>
  <text x="641.0" y="714.96" class="pill" text-anchor="middle" style="font-size:11px">AWAITING REVIEW</text>
  <path d="M190,814 L240,814" stroke="#475569" stroke-width="2.4" fill="none"/>
  <rect x="242" y="790" width="470" height="48" rx="10" fill="#f1f5f9" stroke="#64748b" stroke-width="1.8" stroke-dasharray="3 4"/>
  <text x="300" y="821" class="t" text-anchor="start" style="font-size:17px">Stage 1I</text>
  <text x="400" y="820" class="s" text-anchor="start" style="font-size:14px">NOT DEFINED - not started</text>
  <rect x="261" y="804" width="6" height="20" rx="1.5" fill="#475569"/>
  <rect x="273" y="804" width="6" height="20" rx="1.5" fill="#475569"/>
  <rect x="608" y="779" width="94" height="20" rx="10.0" fill="#475569"/>
  <text x="655.0" y="792.96" class="pill" text-anchor="middle" style="font-size:11px">NOT DEFINED</text>
  <rect x="629" y="175" width="73" height="20" rx="10.0" fill="#15803d"/>
  <text x="665.5" y="188.96" class="pill" text-anchor="middle" style="font-size:11px">COMPLETE</text>
  <rect x="820" y="704" width="300" height="64" rx="23" fill="#1d4ed8" stroke="#1e3a8a" stroke-width="2"/>
  <text x="970.0" y="743.0" class="t" text-anchor="middle" style="font-size:20px;fill:#ffffff;font-weight:800">YOU ARE HERE</text>
  <path d="M816,736 L720,736" fill="none" stroke="#1d4ed8" stroke-width="4" marker-end="url(#m1d4ed8)"/>
  <rect x="760" y="562" width="400" height="110" rx="10" fill="#fef9c3" stroke="#a16207" stroke-width="1.8" stroke-dasharray="9 5"/>
  <text x="960.0" y="602.26" class="t" text-anchor="middle" style="font-size:18px">KubeVirt target designed,</text>
  <text x="960.0" y="623.39" class="s" text-anchor="middle" style="font-size:14.5px">but not deployed.</text>
  <text x="960.0" y="643.89" class="s" text-anchor="middle" style="font-size:14.5px">ADRs 007 to 010. Nothing provisioned.</text>
  <rect x="760" y="186" width="400" height="150" rx="10" fill="#dcfce7" stroke="#15803d" stroke-width="1.8"/>
  <text x="960.0" y="227.12" class="t" text-anchor="middle" style="font-size:16px">Completed and proven</text>
  <text x="960.0" y="247.07" class="s" text-anchor="middle" style="font-size:13.5px">1A to 1G: the source, the disk copy,</text>
  <text x="960.0" y="266.57" class="s" text-anchor="middle" style="font-size:13.5px">the conversion and the KVM boot</text>
  <text x="960.0" y="286.07" class="s" text-anchor="middle" style="font-size:13.5px">were all observed in our lab.</text>
  <text x="960.0" y="305.57" class="s" text-anchor="middle" style="font-size:13.5px">No KubeVirt, CDI or AWS yet.</text>
  <rect x="760" y="796" width="400" height="90" rx="10" fill="#f1f5f9" stroke="#64748b" stroke-width="1.8" stroke-dasharray="3 4"/>
  <text x="960.0" y="826.62" class="t" text-anchor="middle" style="font-size:16px">Stage 1I</text>
  <text x="960.0" y="846.57" class="s" text-anchor="middle" style="font-size:13.5px">Not yet defined. Needs your review of 1H,</text>
  <text x="960.0" y="866.07" class="s" text-anchor="middle" style="font-size:13.5px">your approval and AWS credentials.</text>
  <rect x="234.10000000000002" y="944" width="34" height="20" rx="5" fill="#dcfce7" stroke="#15803d" stroke-width="1.8"/>
  <rect x="276.1" y="944" width="73" height="20" rx="10.0" fill="#15803d"/>
  <text x="312.6" y="957.96" class="pill" text-anchor="middle" style="font-size:11px">COMPLETE</text>
  <text x="357.1" y="959" class="xs" text-anchor="start">proven in the lab</text>
  <rect x="489.90000000000003" y="944" width="34" height="20" rx="5" fill="#dbeafe" stroke="#1d4ed8" stroke-width="1.8"/>
  <rect x="531.9000000000001" y="944" width="66" height="20" rx="10.0" fill="#1d4ed8"/>
  <text x="564.9000000000001" y="957.96" class="pill" text-anchor="middle" style="font-size:11px">CURRENT</text>
  <text x="605.9000000000001" y="959" class="xs" text-anchor="start">where we are</text>
  <rect x="706.7" y="944" width="34" height="20" rx="5" fill="#f1f5f9" stroke="#64748b" stroke-width="1.8" stroke-dasharray="3 4"/>
  <rect x="748.7" y="944" width="94" height="20" rx="10.0" fill="#475569"/>
  <text x="795.7" y="957.96" class="pill" text-anchor="middle" style="font-size:11px">NOT DEFINED</text>
  <text x="850.7" y="959" class="xs" text-anchor="start">official name only</text>
</svg>
