<?xml version="1.0" encoding="UTF-8"?>
<svg xmlns="http://www.w3.org/2000/svg" width="1200" height="1100" viewBox="0 0 1200 1100" role="img" aria-labelledby="title desc">
  <title id="title">What we have not built yet</title>
  <desc id="desc">Not built yet, top to bottom: AWS environment, Kubernetes, KubeVirt, CDI, PVC, DataVolume, KubeVirt VM (all designed in Stage 1H, not started), actual migration (not started), migration CRD, controller, GitOps and observability (deferred). AWS build is blocked on credentials. No stage numbers are assigned.</desc>
  <style>
    text { font-family: 'Segoe UI', Arial, sans-serif; }
    .h { font-size: 24px; font-weight: 700; fill: #0f172a; }
    .h2 { font-size: 17px; font-weight: 700; fill: #0f172a; }
    .sub { font-size: 14px; fill: #334155; }
    .t { font-weight: 600; fill: #0f172a; }
    .s { fill: #1f2937; }
    .xs { font-size: 12px; fill: #334155; }
    .lab { font-size: 13px; font-weight: 700; fill: #334155; letter-spacing: 1px; }
    .pill { font-size: 11px; font-weight: 700; fill: #ffffff; letter-spacing: 0.5px; }
    .halo { paint-order: stroke; stroke: #ffffff; stroke-width: 5px; stroke-linejoin: round; }
  </style>
  <defs><marker id="m64748b" markerWidth="10" markerHeight="10" refX="8.5" refY="5" orient="auto" markerUnits="userSpaceOnUse"><path d="M0,0 L10,5 L0,10 z" fill="#64748b"/></marker></defs>
  <rect width="1200" height="1100" fill="#ffffff"/>
  <text x="600.0" y="44" class="h" text-anchor="middle">NOT BUILT YET</text>
  <text x="600.0" y="70" class="sub" text-anchor="middle">Everything below is on paper or deferred. No stage numbers are assigned here.</text>
  <rect x="110" y="100" width="300" height="52" rx="10" fill="#fef9c3" stroke="#a16207" stroke-width="1.8" stroke-dasharray="9 5"/>
  <text x="260.0" y="131.44" class="t" text-anchor="middle" style="font-size:17px">AWS environment</text>
  <rect x="440" y="115" width="73" height="20" rx="10.0" fill="#a16207"/>
  <text x="476.5" y="128.96" class="pill" text-anchor="middle" style="font-size:11px">DESIGNED</text>
  <rect x="523" y="115" width="94" height="20" rx="10.0" fill="#475569"/>
  <text x="570.0" y="128.96" class="pill" text-anchor="middle" style="font-size:11px">NOT STARTED</text>
  <text x="440" y="160" class="xs" text-anchor="start">VPC + one m8i.xlarge node, ap-south-1 (ADR 007); credentials BLOCKED</text>
  <rect x="110" y="174" width="300" height="52" rx="10" fill="#fef9c3" stroke="#a16207" stroke-width="1.8" stroke-dasharray="9 5"/>
  <text x="260.0" y="205.44" class="t" text-anchor="middle" style="font-size:17px">Kubernetes</text>
  <path d="M260.0,154 L260.0,171" fill="none" stroke="#64748b" stroke-width="2.2" stroke-dasharray="9 6" marker-end="url(#m64748b)"/>
  <rect x="440" y="189" width="73" height="20" rx="10.0" fill="#a16207"/>
  <text x="476.5" y="202.96" class="pill" text-anchor="middle" style="font-size:11px">DESIGNED</text>
  <rect x="523" y="189" width="94" height="20" rx="10.0" fill="#475569"/>
  <text x="570.0" y="202.96" class="pill" text-anchor="middle" style="font-size:11px">NOT STARTED</text>
  <text x="440" y="234" class="xs" text-anchor="start">1.36, kubeadm, single node, CRI-O, flannel</text>
  <rect x="110" y="248" width="300" height="52" rx="10" fill="#fef9c3" stroke="#a16207" stroke-width="1.8" stroke-dasharray="9 5"/>
  <text x="260.0" y="279.44" class="t" text-anchor="middle" style="font-size:17px">KubeVirt</text>
  <path d="M260.0,228 L260.0,245" fill="none" stroke="#64748b" stroke-width="2.2" stroke-dasharray="9 6" marker-end="url(#m64748b)"/>
  <rect x="440" y="263" width="73" height="20" rx="10.0" fill="#a16207"/>
  <text x="476.5" y="276.96" class="pill" text-anchor="middle" style="font-size:11px">DESIGNED</text>
  <rect x="523" y="263" width="94" height="20" rx="10.0" fill="#475569"/>
  <text x="570.0" y="276.96" class="pill" text-anchor="middle" style="font-size:11px">NOT STARTED</text>
  <text x="440" y="308" class="xs" text-anchor="start">v1.9.0</text>
  <rect x="110" y="322" width="300" height="52" rx="10" fill="#fef9c3" stroke="#a16207" stroke-width="1.8" stroke-dasharray="9 5"/>
  <text x="260.0" y="353.44" class="t" text-anchor="middle" style="font-size:17px">CDI</text>
  <path d="M260.0,302 L260.0,319" fill="none" stroke="#64748b" stroke-width="2.2" stroke-dasharray="9 6" marker-end="url(#m64748b)"/>
  <rect x="440" y="337" width="73" height="20" rx="10.0" fill="#a16207"/>
  <text x="476.5" y="350.96" class="pill" text-anchor="middle" style="font-size:11px">DESIGNED</text>
  <rect x="523" y="337" width="94" height="20" rx="10.0" fill="#475569"/>
  <text x="570.0" y="350.96" class="pill" text-anchor="middle" style="font-size:11px">NOT STARTED</text>
  <text x="440" y="382" class="xs" text-anchor="start">v1.66.1 (candidate until the runtime gate passes)</text>
  <rect x="110" y="396" width="300" height="52" rx="10" fill="#fef9c3" stroke="#a16207" stroke-width="1.8" stroke-dasharray="9 5"/>
  <text x="260.0" y="427.44" class="t" text-anchor="middle" style="font-size:17px">PVC</text>
  <path d="M260.0,376 L260.0,393" fill="none" stroke="#64748b" stroke-width="2.2" stroke-dasharray="9 6" marker-end="url(#m64748b)"/>
  <rect x="440" y="411" width="73" height="20" rx="10.0" fill="#a16207"/>
  <text x="476.5" y="424.96" class="pill" text-anchor="middle" style="font-size:11px">DESIGNED</text>
  <rect x="523" y="411" width="94" height="20" rx="10.0" fill="#475569"/>
  <text x="570.0" y="424.96" class="pill" text-anchor="middle" style="font-size:11px">NOT STARTED</text>
  <text x="440" y="456" class="xs" text-anchor="start">40 GiB EBS gp3, Block, ReadWriteOnce (ADR 009)</text>
  <rect x="110" y="470" width="300" height="52" rx="10" fill="#fef9c3" stroke="#a16207" stroke-width="1.8" stroke-dasharray="9 5"/>
  <text x="260.0" y="501.44" class="t" text-anchor="middle" style="font-size:17px">DataVolume</text>
  <path d="M260.0,450 L260.0,467" fill="none" stroke="#64748b" stroke-width="2.2" stroke-dasharray="9 6" marker-end="url(#m64748b)"/>
  <rect x="440" y="485" width="73" height="20" rx="10.0" fill="#a16207"/>
  <text x="476.5" y="498.96" class="pill" text-anchor="middle" style="font-size:11px">DESIGNED</text>
  <rect x="523" y="485" width="94" height="20" rx="10.0" fill="#475569"/>
  <text x="570.0" y="498.96" class="pill" text-anchor="middle" style="font-size:11px">NOT STARTED</text>
  <text x="440" y="530" class="xs" text-anchor="start">CDI upload of the qcow2</text>
  <rect x="110" y="544" width="300" height="52" rx="10" fill="#fef9c3" stroke="#a16207" stroke-width="1.8" stroke-dasharray="9 5"/>
  <text x="260.0" y="575.44" class="t" text-anchor="middle" style="font-size:17px">KubeVirt VM</text>
  <path d="M260.0,524 L260.0,541" fill="none" stroke="#64748b" stroke-width="2.2" stroke-dasharray="9 6" marker-end="url(#m64748b)"/>
  <rect x="440" y="559" width="73" height="20" rx="10.0" fill="#a16207"/>
  <text x="476.5" y="572.96" class="pill" text-anchor="middle" style="font-size:11px">DESIGNED</text>
  <rect x="523" y="559" width="94" height="20" rx="10.0" fill="#475569"/>
  <text x="570.0" y="572.96" class="pill" text-anchor="middle" style="font-size:11px">NOT STARTED</text>
  <text x="440" y="604" class="xs" text-anchor="start">VirtualMachine, EFI (Secure Boot off), virtio, masquerade</text>
  <rect x="110" y="618" width="300" height="52" rx="10" fill="#f1f5f9" stroke="#64748b" stroke-width="1.8" stroke-dasharray="3 4"/>
  <text x="260.0" y="649.44" class="t" text-anchor="middle" style="font-size:17px">Actual migration</text>
  <path d="M260.0,598 L260.0,615" fill="none" stroke="#64748b" stroke-width="2.2" stroke-dasharray="9 6" marker-end="url(#m64748b)"/>
  <rect x="440" y="633" width="94" height="20" rx="10.0" fill="#475569"/>
  <text x="487.0" y="646.96" class="pill" text-anchor="middle" style="font-size:11px">NOT STARTED</text>
  <rect x="544" y="633" width="94" height="20" rx="10.0" fill="#475569"/>
  <text x="591.0" y="646.96" class="pill" text-anchor="middle" style="font-size:11px">NOTHING RUN</text>
  <text x="440" y="678" class="xs" text-anchor="start">"No migration occurred" (Stage 1H)</text>
  <rect x="110" y="692" width="300" height="52" rx="10" fill="#f1f5f9" stroke="#64748b" stroke-width="1.8" stroke-dasharray="3 4"/>
  <text x="260.0" y="723.44" class="t" text-anchor="middle" style="font-size:17px">Migration CRD</text>
  <path d="M260.0,672 L260.0,689" fill="none" stroke="#64748b" stroke-width="2.2" stroke-dasharray="9 6" marker-end="url(#m64748b)"/>
  <rect x="440" y="707" width="73" height="20" rx="10.0" fill="#475569"/>
  <text x="476.5" y="720.96" class="pill" text-anchor="middle" style="font-size:11px">DEFERRED</text>
  <rect x="523" y="707" width="94" height="20" rx="10.0" fill="#475569"/>
  <text x="570.0" y="720.96" class="pill" text-anchor="middle" style="font-size:11px">NOT STARTED</text>
  <text x="440" y="752" class="xs" text-anchor="start">VirtualMachineMigration: Stage 0 concept</text>
  <rect x="110" y="766" width="300" height="52" rx="10" fill="#f1f5f9" stroke="#64748b" stroke-width="1.8" stroke-dasharray="3 4"/>
  <text x="260.0" y="797.44" class="t" text-anchor="middle" style="font-size:17px">Controller</text>
  <path d="M260.0,746 L260.0,763" fill="none" stroke="#64748b" stroke-width="2.2" stroke-dasharray="9 6" marker-end="url(#m64748b)"/>
  <rect x="440" y="781" width="73" height="20" rx="10.0" fill="#475569"/>
  <text x="476.5" y="794.96" class="pill" text-anchor="middle" style="font-size:11px">DEFERRED</text>
  <rect x="523" y="781" width="94" height="20" rx="10.0" fill="#475569"/>
  <text x="570.0" y="794.96" class="pill" text-anchor="middle" style="font-size:11px">NOT STARTED</text>
  <text x="440" y="826" class="xs" text-anchor="start">direction accepted, implementation deferred (ADR 005)</text>
  <rect x="110" y="840" width="300" height="52" rx="10" fill="#f1f5f9" stroke="#64748b" stroke-width="1.8" stroke-dasharray="3 4"/>
  <text x="260.0" y="871.44" class="t" text-anchor="middle" style="font-size:17px">GitOps</text>
  <path d="M260.0,820 L260.0,837" fill="none" stroke="#64748b" stroke-width="2.2" stroke-dasharray="9 6" marker-end="url(#m64748b)"/>
  <rect x="440" y="855" width="73" height="20" rx="10.0" fill="#475569"/>
  <text x="476.5" y="868.96" class="pill" text-anchor="middle" style="font-size:11px">DEFERRED</text>
  <rect x="523" y="855" width="94" height="20" rx="10.0" fill="#475569"/>
  <text x="570.0" y="868.96" class="pill" text-anchor="middle" style="font-size:11px">NOT STARTED</text>
  <text x="440" y="900" class="xs" text-anchor="start">"later stages" (Stage 1H)</text>
  <rect x="110" y="914" width="300" height="52" rx="10" fill="#f1f5f9" stroke="#64748b" stroke-width="1.8" stroke-dasharray="3 4"/>
  <text x="260.0" y="945.44" class="t" text-anchor="middle" style="font-size:17px">Observability</text>
  <path d="M260.0,894 L260.0,911" fill="none" stroke="#64748b" stroke-width="2.2" stroke-dasharray="9 6" marker-end="url(#m64748b)"/>
  <rect x="440" y="929" width="73" height="20" rx="10.0" fill="#475569"/>
  <text x="476.5" y="942.96" class="pill" text-anchor="middle" style="font-size:11px">DEFERRED</text>
  <rect x="523" y="929" width="94" height="20" rx="10.0" fill="#475569"/>
  <text x="570.0" y="942.96" class="pill" text-anchor="middle" style="font-size:11px">NOT STARTED</text>
  <text x="440" y="974" class="xs" text-anchor="start">monitoring "after the first migration works"</text>
  <path d="M46,112 L74,140 M74,112 L46,140" stroke="#94a3b8" stroke-width="5" stroke-linecap="round"/>
  <rect x="30" y="992" width="1140" height="74" rx="12" fill="#f8fafc" stroke="#0f172a" stroke-width="2"/>
  <text x="600.0" y="1024" class="t" text-anchor="middle" style="font-size:20px;fill:#0f172a">No AWS, Kubernetes, KubeVirt or CDI resource exists today.</text>
  <text x="600.0" y="1048" class="s" text-anchor="middle" style="font-size:14px;fill:#334155">Stage 1I (not yet defined) would be the first stage allowed to build any of this.</text>
</svg>
